<?xml version="1.0" standalone="no"?>
<!DOCTYPE svg PUBLIC "-//W3C//DTD SVG 20010904//EN"
 "http://www.w3.org/TR/2001/REC-SVG-20010904/DTD/svg10.dtd">
<svg version="1.0" xmlns="http://www.w3.org/2000/svg"
 width="512.000000pt" height="512.000000pt" viewBox="0 0 512.000000 512.000000"
 preserveAspectRatio="xMidYMid meet">
<metadata>
Created by potrace 1.14, written by Peter Selinger 2001-2017
</metadata>
<g transform="translate(0.000000,512.000000) scale(0.100000,-0.100000)"
fill="#000000" stroke="none">
<path d="M990 4480 c-445 -6 -433 -4 -511 -84 -24 -25 -44 -49 -45 -53 0 -4
-7 -21 -14 -38 -11 -25 -14 -280 -14 -1445 0 -1342 0 -1417 18 -1448 9 -19 16
-35 14 -36 -39 -21 -118 -82 -133 -102 -11 -15 -71 -91 -132 -168 -138 -173
-179 -246 -169 -299 12 -64 96 -139 176 -156 14 -4 134 -6 268 -6 133 0 242
-4 242 -8 0 -5 4 -6 9 -2 6 3 196 6 423 6 227 -1 1172 -1 2100 -1 l1687 0 56
21 c95 35 155 104 155 176 0 40 -34 101 -89 163 -28 30 -51 58 -51 61 0 3 -10
17 -21 30 -12 13 -33 40 -48 59 -14 19 -28 37 -32 40 -3 3 -24 29 -48 59 -44
57 -100 106 -132 116 -18 6 -18 8 -2 43 13 31 16 84 18 332 1 162 3 300 5 305
1 6 1 12 0 15 -1 3 -3 502 -4 1110 l-1 1105 -23 46 c-12 25 -38 62 -58 82 -61
60 -94 71 -234 75 -218 5 -2998 7 -3410 2z m3477 -253 c9 -15 10 -2715 1
-2730 -10 -16 -3796 -17 -3812 -1 -13 12 -15 2711 -3 2731 11 17 3803 17 3814
0z m71 -2992 c25 -21 80 -102 100 -148 9 -20 9 -34 2 -48 -10 -18 -26 -19
-508 -20 -273 0 -576 0 -673 -1 l-175 0 9 -61 c8 -54 7 -61 -10 -70 -12 -7
-254 -10 -717 -10 -795 1 -728 -7 -719 88 l5 54 -677 0 c-736 -1 -715 -2 -702
53 11 42 81 148 112 168 30 19 55 20 1980 17 1934 -2 1950 -2 1973 -22z"/>
<path d="M2822 3650 c-27 -16 -47 -50 -112 -186 -44 -92 -80 -168 -80 -169 0
-2 -28 -61 -61 -131 -34 -71 -90 -190 -124 -264 -35 -74 -88 -187 -118 -250
-30 -63 -65 -137 -77 -165 -13 -27 -47 -102 -78 -165 -31 -64 -55 -129 -55
-147 0 -63 58 -117 124 -116 60 1 86 25 128 116 21 45 61 129 89 187 27 58 77
164 110 235 59 128 97 209 204 435 79 165 113 237 141 300 13 30 39 86 57 124
18 38 33 82 32 97 -1 44 -30 89 -67 105 -46 19 -74 18 -113 -6z"/>
<path d="M1723 3445 c-28 -12 -191 -140 -363 -285 -25 -20 -83 -68 -130 -106
-108 -87 -104 -84 -124 -121 -22 -43 -20 -111 3 -149 10 -17 67 -70 127 -119
60 -49 111 -92 114 -95 3 -3 25 -21 50 -40 25 -19 47 -37 50 -40 19 -24 249
-204 269 -212 31 -12 90 -12 124 1 62 24 104 103 93 176 -8 47 -35 82 -118
148 -26 21 -53 43 -60 50 -7 7 -29 24 -50 39 -20 15 -42 33 -50 41 -7 7 -35
30 -63 52 -27 22 -57 48 -67 58 -19 18 -24 37 -10 37 5 0 18 8 29 18 31 26 69
58 211 172 141 114 182 164 182 220 0 49 -38 121 -76 142 -43 25 -103 31 -141
13z"/>
<path d="M3287 3446 c-68 -25 -107 -80 -107 -153 0 -65 28 -98 180 -220 50
-39 209 -172 230 -191 l25 -22 -27 -23 c-44 -37 -60 -50 -138 -112 -41 -33
-77 -62 -80 -65 -3 -4 -38 -32 -77 -64 -84 -67 -113 -108 -113 -160 0 -140
159 -221 262 -133 14 12 43 36 64 52 21 17 79 64 129 105 49 42 146 121 215
177 69 55 136 112 149 127 33 35 41 119 16 166 -23 44 9 16 -314 279 -36 29
-112 92 -168 138 -138 113 -170 126 -246 99z"/>
</g>
</svg>
